<svg id="svg" version="1.1" xmlns="http://www.w3.org/2000/svg" xmlns:xlink="http://www.w3.org/1999/xlink" width="400" height="400" viewBox="0, 0, 400,400"><g id="svgg"><path id="path0" d="M170.313 68.218 C 169.775 68.297,168.095 68.544,166.578 68.768 C 165.061 68.991,162.130 69.681,160.066 70.301 L 156.312 71.428 152.953 70.503 C 121.737 61.915,90.774 77.933,77.554 109.510 C 69.410 128.961,66.453 158.328,72.072 163.947 C 74.531 166.406,76.158 165.868,82.564 160.474 C 87.762 156.098,93.382 152.727,105.968 146.436 C 139.211 129.819,150.426 117.149,157.823 87.850 C 159.653 80.599,159.616 80.659,162.762 79.744 C 188.238 72.330,205.528 88.459,204.156 118.359 C 203.471 133.305,199.651 148.531,185.790 191.573 C 182.674 201.247,178.870 214.178,176.530 223.047 C 175.961 225.203,175.986 225.280,175.001 218.439 C 167.613 167.176,141.860 146.646,111.914 168.147 C 81.532 189.963,73.031 224.661,90.057 257.368 C 96.446 269.642,99.098 269.430,105.640 256.118 C 108.472 250.355,110.772 246.313,113.235 242.773 C 126.711 223.400,129.555 217.710,132.097 205.039 C 133.362 198.734,133.350 186.646,132.072 180.273 C 129.858 169.235,129.784 169.531,134.755 169.531 C 146.761 169.531,155.620 180.086,161.886 201.856 C 168.035 223.220,168.988 245.121,165.441 283.594 C 164.519 293.600,164.591 328.768,165.536 329.935 C 166.949 331.679,169.066 332.103,171.102 331.051 C 173.253 329.938,173.224 330.201,173.478 309.570 C 173.733 288.792,173.929 286.345,175.976 278.320 C 181.892 255.132,202.058 228.417,223.460 215.416 L 225.696 214.058 227.712 215.415 C 235.970 220.972,246.655 215.362,246.655 205.469 C 246.655 190.920,226.200 188.728,223.013 202.935 L 222.573 204.893 217.360 208.348 C 204.977 216.557,192.833 228.063,184.817 239.183 C 183.452 241.075,182.275 242.561,182.200 242.486 C 181.217 241.503,190.491 207.266,195.718 192.578 C 212.180 146.325,241.976 119.686,268.494 127.514 C 274.874 129.397,275.147 129.845,273.207 135.261 C 268.064 149.622,266.797 155.768,266.797 166.346 C 266.797 177.989,269.271 188.155,275.453 201.915 C 280.929 214.101,281.687 217.729,281.909 232.813 C 282.108 246.301,282.403 247.266,286.324 247.266 C 289.646 247.266,301.674 236.449,310.216 225.781 C 340.295 188.214,329.724 141.249,287.453 124.656 C 284.578 123.527,280.722 121.922,278.883 121.088 C 256.970 111.152,237.104 116.820,215.280 139.238 C 211.918 142.691,210.134 144.280,210.281 143.690 C 210.407 143.186,210.946 140.400,211.480 137.500 C 215.726 114.416,213.815 96.535,205.838 84.719 C 198.188 73.388,183.038 66.351,170.313 68.218 M138.281 84.375 C 139.404 85.497,139.281 87.156,137.988 88.326 C 137.188 89.051,130.879 93.909,130.175 94.342 C 130.121 94.375,129.898 97.112,129.679 100.424 C 128.811 113.540,127.782 119.141,126.240 119.141 C 124.525 119.141,124.408 118.407,124.509 108.297 L 124.605 98.755 122.361 100.718 C 114.181 107.874,100.176 123.388,100.616 124.805 C 102.528 130.958,99.233 135.936,93.559 135.466 C 84.835 134.742,85.316 121.551,94.068 121.471 C 95.429 121.459,95.710 121.209,99.218 116.881 C 101.259 114.364,106.653 108.569,111.206 104.004 L 119.484 95.703 111.391 95.703 C 102.751 95.703,101.563 95.464,101.563 93.722 C 101.563 91.621,106.648 90.644,118.799 90.409 L 126.464 90.261 130.322 87.385 C 136.002 83.150,136.767 82.861,138.281 84.375 M291.351 142.871 C 292.991 144.251,298.121 157.595,300.565 166.839 C 301.845 171.680,301.913 171.818,304.547 174.978 C 311.469 183.282,316.281 190.571,315.636 191.776 C 314.607 193.700,311.399 191.078,304.935 183.030 L 303.035 180.664 303.346 183.594 C 303.517 185.205,303.669 189.632,303.684 193.431 L 303.711 200.339 304.741 201.439 C 309.790 206.834,305.948 214.911,298.789 213.951 C 292.627 213.124,290.931 204.138,296.312 200.826 L 297.971 199.805 298.239 195.508 C 298.778 186.856,296.987 172.731,294.290 164.368 L 293.695 162.525 289.450 168.860 C 283.688 177.459,283.320 177.811,281.819 176.153 C 280.995 175.243,280.739 175.829,287.850 162.351 L 291.330 155.757 289.220 150.654 C 288.059 147.847,287.109 145.146,287.109 144.650 C 287.109 142.595,289.721 141.499,291.351 142.871 M119.141 181.250 C 120.363 182.473,120.142 183.228,116.550 190.104 L 113.179 196.558 113.644 199.353 C 116.189 214.639,116.256 215.651,114.775 216.443 C 113.602 217.071,113.399 216.686,111.864 210.905 C 111.098 208.023,110.330 205.410,110.158 205.099 C 109.765 204.392,107.194 212.300,105.240 220.226 L 103.848 225.873 104.829 226.901 C 110.756 233.115,101.874 243.037,95.441 237.389 C 91.318 233.769,92.727 226.123,97.701 225.128 C 98.619 224.944,98.796 224.645,99.197 222.606 C 99.448 221.334,100.242 218.144,100.961 215.518 C 101.681 212.891,102.213 210.683,102.144 210.611 C 102.074 210.539,100.062 211.640,97.673 213.059 C 93.182 215.724,91.797 215.975,91.797 214.123 C 91.797 212.937,92.818 212.088,102.267 205.421 L 104.729 203.684 107.179 197.838 C 113.500 182.755,116.494 178.603,119.141 181.250 M236.662 201.729 C 239.046 202.961,239.394 206.387,237.344 208.438 C 234.573 211.208,230.859 209.428,230.859 205.329 C 230.859 202.093,233.817 200.257,236.662 201.729 " stroke="none" fill="#000000" fill-rule="evenodd"></path></g></svg>